<svg width="598" height="598" viewBox="0 0 598 598" fill="none" xmlns="http://www.w3.org/2000/svg">
<g clip-path="url(#clip0_2397_261)">
<path d="M598 0H0V598H598V0Z" fill="#16161A"/>
<path d="M598.956 148.005C603.603 147.973 608.073 149.789 611.381 153.053C614.689 156.316 616.566 160.76 616.597 165.407C616.629 170.054 614.814 174.523 611.55 177.832C608.287 181.14 603.843 183.016 599.196 183.048C596.895 183.064 594.613 182.626 592.481 181.76C590.349 180.894 588.409 179.617 586.771 178.001C585.133 176.385 583.829 174.462 582.934 172.342C582.039 170.223 581.57 167.947 581.555 165.646C581.531 163.348 581.961 161.068 582.821 158.936C583.68 156.805 584.952 154.864 586.563 153.225C588.174 151.586 590.093 150.282 592.209 149.386C594.326 148.49 596.598 148.021 598.897 148.005H598.956ZM0.956374 148.005C5.60334 147.973 10.0726 149.789 13.3809 153.053C16.6892 156.316 18.5657 160.76 18.5974 165.407C18.6291 170.054 16.8135 174.523 13.55 177.832C10.2866 181.14 5.84254 183.016 1.19557 183.048C-1.10538 183.064 -3.38691 182.626 -5.51874 181.76C-7.65057 180.894 -9.59095 179.617 -11.2291 178.001C-12.8672 176.385 -14.171 174.462 -15.066 172.342C-15.961 170.223 -16.4298 167.947 -16.4454 165.646C-16.4691 163.348 -16.0389 161.068 -15.1794 158.936C-14.32 156.805 -13.0482 154.864 -11.437 153.225C-9.82589 151.586 -7.90706 150.282 -5.79058 149.386C-3.6741 148.49 -1.40161 148.021 0.896572 148.005H0.956374ZM58.185 466.022C67.753 466.022 75.527 473.796 75.527 483.364C75.5348 485.685 75.0844 487.986 74.2013 490.133C73.3183 492.28 72.0201 494.232 70.3812 495.876C68.7423 497.521 66.7949 498.826 64.6507 499.716C62.5065 500.606 60.2077 501.064 57.886 501.064C55.6086 501.064 53.3535 500.616 51.2495 499.744C49.1455 498.873 47.2337 497.595 45.6233 495.985C44.013 494.375 42.7356 492.463 41.8641 490.359C40.9925 488.255 40.544 486 40.544 483.722C40.5361 481.401 40.9866 479.1 41.8696 476.953C42.7526 474.806 44.0508 472.854 45.6897 471.21C47.3286 469.565 49.276 468.26 51.4202 467.37C53.5644 466.48 55.8633 466.022 58.185 466.022ZM408.434 451.012C413.081 450.98 417.55 452.796 420.858 456.059C424.166 459.323 426.043 463.767 426.075 468.414C426.106 473.061 424.291 477.53 421.027 480.838C417.764 484.146 413.32 486.023 408.673 486.055C404.026 486.086 399.557 484.271 396.248 481.007C392.94 477.744 391.063 473.3 391.032 468.653C391 464.006 392.816 459.537 396.079 456.228C399.343 452.92 403.787 451.044 408.434 451.012ZM295.711 26.3122C300.358 26.2805 304.827 28.0961 308.135 31.3595C311.443 34.623 313.32 39.0671 313.352 43.714C313.383 48.361 311.568 52.8302 308.304 56.1386C305.041 59.4469 300.597 61.3233 295.95 61.355C291.303 61.3867 286.834 59.5712 283.525 56.3077C280.217 53.0442 278.341 48.6002 278.309 43.9532C278.277 39.3063 280.093 34.837 283.356 31.5287C286.62 28.2204 291.064 26.3439 295.711 26.3122ZM129.526 296.608L147.167 314.01L129.825 331.651L112.184 314.309L129.526 296.608ZM389.955 219.765C389.955 219.765 407.297 227.539 407.297 237.107V237.406C407.297 246.974 399.523 254.748 389.955 254.748H389.716C380.148 254.748 372.374 237.406 372.374 237.406L389.955 219.765ZM537.781 343.731C537.093 342.308 536.95 340.682 537.38 339.161C537.81 337.641 538.782 336.33 540.113 335.478C554.704 326.329 570.252 324.654 582.87 330.694C595.428 336.854 603.621 350.189 605.415 367.352C606.73 380.149 612.232 389.537 620.843 393.783C629.454 397.969 640.218 396.474 651.162 389.657C652.578 388.985 654.191 388.855 655.696 389.294C657.201 389.732 658.492 390.708 659.326 392.035C660.159 393.363 660.476 394.95 660.217 396.495C659.958 398.041 659.14 399.438 657.919 400.421C643.328 409.63 627.78 411.364 615.222 405.265C602.664 399.165 594.412 385.83 592.677 368.667C591.302 355.81 585.8 346.422 577.189 342.236C568.578 338.05 557.814 339.485 546.871 346.302C543.881 348.216 539.934 347.259 538.08 344.329L537.781 343.731ZM597.94 529.768C599.158 529.355 600.486 529.407 601.667 529.915C602.849 530.423 603.801 531.351 604.338 532.519C610.259 545.316 610.019 558.114 603.74 567.682C597.461 577.25 585.8 582.512 571.688 582.153C561.163 581.914 552.97 585.382 548.665 591.901C544.359 598.479 544.419 607.389 548.844 616.897C549.131 617.521 549.291 618.196 549.317 618.882C549.343 619.569 549.234 620.254 548.995 620.898C548.756 621.542 548.393 622.133 547.926 622.637C547.459 623.14 546.897 623.547 546.273 623.834C545.648 624.12 544.974 624.281 544.287 624.307C543.601 624.333 542.916 624.224 542.272 623.985C541.627 623.746 541.037 623.383 540.533 622.916C540.029 622.448 539.622 621.887 539.336 621.262C533.416 608.525 533.655 595.728 539.934 586.16C546.213 576.592 557.874 571.329 571.987 571.688C582.511 571.927 590.704 568.459 595.01 561.941C599.315 555.363 599.255 546.453 594.83 536.944C594.514 536.275 594.344 535.546 594.332 534.806C594.32 534.066 594.466 533.332 594.76 532.652C595.054 531.973 595.49 531.364 596.039 530.867C596.587 530.37 597.235 529.995 597.94 529.768ZM597.94 -68.2316C599.158 -68.6451 600.486 -68.5928 601.667 -68.0848C602.849 -67.5768 603.801 -66.6491 604.338 -65.4808C610.259 -52.6836 610.019 -39.8864 603.74 -30.3184C597.461 -20.7504 585.8 -15.488 571.688 -15.8468C561.163 -16.086 552.97 -12.6176 548.665 -6.09938C544.359 0.478625 544.419 9.38883 548.844 18.897C549.131 19.5213 549.291 20.196 549.317 20.8825C549.343 21.569 549.234 22.2538 548.995 22.898C548.756 23.5421 548.393 24.1329 547.926 24.6367C547.459 25.1404 546.897 25.5472 546.273 25.8338C545.648 26.1205 544.974 26.2813 544.287 26.3072C543.601 26.3331 542.916 26.2236 542.272 25.9848C541.627 25.746 541.037 25.3827 540.533 24.9156C540.029 24.4485 539.622 23.8867 539.336 23.2624C533.416 10.525 533.655 -2.27218 539.934 -11.8402C546.213 -21.4082 557.874 -26.6706 571.987 -26.3118C582.511 -26.0726 590.704 -29.541 595.01 -36.0592C599.315 -42.6372 599.255 -51.5474 594.83 -61.0556C594.514 -61.7248 594.344 -62.4539 594.332 -63.1941C594.32 -63.9343 594.466 -64.6685 594.76 -65.3477C595.054 -66.027 595.49 -66.6356 596.039 -67.1329C596.587 -67.6302 597.235 -68.0048 597.94 -68.2316ZM56.4508 59.2022C57.3478 57.4082 59.68 56.87 61.8328 57.767C73.0752 62.6706 80.7296 70.4446 82.9422 79.1754C85.2146 87.966 81.6864 96.6968 73.3742 103.215C67.155 107.999 64.5836 114.039 66.0786 120.019C67.6334 125.999 73.0752 131.381 81.4472 134.969C83.7794 136.045 85.0352 138.437 84.2578 140.351C83.4804 142.384 80.9688 143.161 78.6964 142.145C67.454 137.241 59.7996 129.467 57.5272 120.736C55.3146 112.006 58.8428 103.215 67.0952 96.7566C73.3742 91.9128 75.9456 85.873 74.4506 79.893C72.8958 73.913 67.454 68.5908 59.0222 64.943C56.7498 63.9264 55.494 61.5344 56.2714 59.561L56.4508 59.1424V59.2022ZM-60.219 343.79C-60.9073 342.368 -61.0501 340.742 -60.6203 339.221C-60.1905 337.7 -59.2179 336.39 -57.8868 335.538C-43.2956 326.389 -27.7476 324.714 -15.1298 330.754C-2.57182 336.913 5.62077 350.249 7.41477 367.411C8.73037 380.209 14.232 389.597 22.8432 393.843C31.4544 398.029 42.2184 396.534 53.1618 389.717C54.5776 389.045 56.191 388.915 57.6958 389.354C59.2007 389.792 60.4923 390.767 61.3256 392.095C62.159 393.422 62.4761 395.009 62.2168 396.555C61.9576 398.101 61.14 399.498 59.9192 400.481C45.328 409.69 29.78 411.424 17.222 405.325C4.66398 399.165 -3.58842 385.83 -5.38242 368.667C-6.75782 355.81 -12.2594 346.422 -20.8706 342.236C-29.4818 338.05 -40.2458 339.485 -51.1892 346.302C-54.1792 348.216 -58.126 347.259 -59.9798 344.329L-60.2788 343.731L-60.219 343.79ZM-0.0602266 529.768C1.1577 529.355 2.48564 529.407 3.66729 529.915C4.84894 530.423 5.80052 531.351 6.33838 532.519C12.2586 545.316 12.0194 558.114 5.74037 567.682C-0.538625 577.25 -12.1996 582.512 -26.3124 582.153C-36.8372 581.914 -45.0298 585.382 -49.3354 591.901C-53.641 598.479 -53.5812 607.389 -49.156 616.897C-48.5771 618.158 -48.5228 619.597 -49.0051 620.898C-49.4873 622.199 -50.4666 623.255 -51.7274 623.834C-52.9883 624.413 -54.4275 624.467 -55.7284 623.985C-57.0293 623.503 -58.0853 622.523 -58.6642 621.262C-64.5844 608.525 -64.3452 595.728 -58.0662 586.16C-51.7872 576.592 -40.1262 571.329 -26.0134 571.688C-15.4886 571.927 -7.29603 568.459 -2.99043 561.941C1.31517 555.363 1.25538 546.453 -3.16982 536.944C-3.48621 536.275 -3.65614 535.546 -3.66824 534.806C-3.68034 534.066 -3.53435 533.332 -3.24002 532.652C-2.94568 531.973 -2.50977 531.364 -1.96142 530.867C-1.41307 530.37 -0.764906 529.995 -0.0602266 529.768ZM262.581 500.765C261.146 497.895 261.983 494.307 264.734 492.513C279.146 483.005 294.634 480.972 307.372 486.772C320.109 492.573 328.601 505.729 330.813 522.832C332.428 535.629 338.169 544.958 346.84 548.904C355.57 552.911 366.275 551.177 377.039 544.12C378.451 543.188 380.176 542.854 381.834 543.19C383.493 543.526 384.951 544.506 385.889 545.914C387.803 548.904 387.025 552.851 384.095 554.765C369.743 564.273 354.195 566.366 341.458 560.506C328.78 554.705 320.229 541.549 318.076 524.446C316.401 511.649 310.72 502.38 301.99 498.373C293.259 494.367 282.555 496.101 271.791 503.157C268.86 505.071 264.854 504.353 262.94 501.363L262.581 500.765ZM245.18 273.107C242.369 274.602 238.781 273.705 236.927 271.014C227.299 256.722 224.967 241.233 230.648 228.496C236.269 215.699 249.366 206.968 266.409 204.576C279.206 202.782 288.355 196.981 292.242 188.251C296.129 179.46 294.275 168.756 287.04 158.052C285.066 155.121 285.844 151.175 288.714 149.201C291.704 147.228 295.591 148.005 297.684 150.876C307.252 165.168 309.644 180.656 303.903 193.393C298.282 206.191 285.246 214.921 268.143 217.313C255.405 219.107 246.196 224.908 242.309 233.639C238.422 242.429 240.276 253.134 247.512 263.838C249.485 266.768 248.768 270.715 245.837 272.748C245.598 272.808 245.419 272.987 245.239 273.107H245.18ZM603.98 58.365L608.465 68.5908L548.844 94.544L544.419 84.2584L603.98 58.365ZM522.353 58.0062L518.406 68.4712L353.657 6.69783L357.544 -3.82697L522.353 58.0062ZM247.572 -37.1356L257.259 -31.5742L204.516 59.8002L194.828 54.179L247.572 -37.1356ZM522.353 656.006L518.406 666.531L353.657 604.638L357.544 594.173L522.353 656.006ZM302.468 335.06L313.531 333.266L324.474 400.959L313.411 402.753L302.468 335.06ZM265.272 417.524L262.282 428.288L160.622 400.421L163.612 389.657L265.272 417.524ZM247.572 560.864L257.259 566.426L204.516 657.8L194.828 652.179L247.572 560.864ZM522.353 58.0062L518.406 68.4712L353.657 6.69783L357.544 -3.82697L522.353 58.0062ZM475.888 312.515L480.493 323.04L382.779 365.558L378.175 355.093L475.888 312.515ZM5.97957 58.365L10.4646 68.5908L-49.0962 94.544L-53.5812 84.2584L5.97957 58.365ZM603.98 58.365L608.465 68.5908L548.844 94.544L544.419 84.2584L603.98 58.365ZM185.619 165.527L189.207 176.649L50.8894 221.38L47.3014 210.257L185.619 165.527ZM473.257 443.298L477.622 433.012L537.422 458.606L532.997 468.892L473.257 443.298ZM247.572 -37.0758L257.259 -31.5144L204.516 59.8002L194.828 54.179L247.572 -37.0758ZM403.889 66.9762L413.576 72.5974L370.162 147.766L360.474 142.145L403.889 66.9762ZM126.895 540.293L123.307 531.921L180.596 507.044L184.184 515.357L126.895 540.293ZM541.309 242.549L532.339 249.247L469.43 164.749L478.4 158.052L541.309 242.549ZM522.353 656.006L518.406 666.531L353.657 604.638L357.544 594.173L522.353 656.006ZM247.572 560.924L257.259 566.486L204.516 657.8L194.828 652.179L247.572 560.924ZM5.97957 58.365L10.4048 68.5908L-49.156 94.544L-53.641 84.2584L5.97957 58.365Z" fill="#242428"/>
</g>
<defs>
<clipPath id="clip0_2397_261">
<rect width="598" height="598" fill="white"/>
</clipPath>
</defs>
</svg>
