<svg width="597" height="598" viewBox="0 0 597 598" fill="none" xmlns="http://www.w3.org/2000/svg">
<g clip-path="url(#clip0_2397_252)">
<path d="M597 0H0V598H597V0Z" fill="#E4EAEE"/>
<path d="M597.955 148.005C602.594 147.973 607.056 149.789 610.359 153.053C613.662 156.316 615.535 160.76 615.567 165.407C615.598 170.054 613.786 174.523 610.528 177.832C607.27 181.14 602.833 183.016 598.194 183.048C595.897 183.064 593.619 182.626 591.491 181.76C589.362 180.894 587.425 179.617 585.79 178.001C584.155 176.385 582.853 174.462 581.959 172.342C581.066 170.223 580.598 167.947 580.582 165.646C580.559 163.348 580.988 161.068 581.846 158.936C582.704 156.805 583.974 154.864 585.582 153.225C587.191 151.586 589.106 150.282 591.219 149.386C593.332 148.49 595.601 148.021 597.895 148.005H597.955ZM0.954986 148.005C5.59418 147.973 10.0559 149.789 13.3587 153.053C16.6615 156.316 18.5348 160.76 18.5665 165.407C18.5982 170.054 16.7856 174.523 13.5276 177.832C10.2696 181.14 5.83298 183.016 1.19379 183.048C-1.10332 183.064 -3.38104 182.626 -5.5093 181.76C-7.63756 180.894 -9.5747 179.617 -11.2101 178.001C-12.8455 176.385 -14.1471 174.462 -15.0406 172.342C-15.9341 170.223 -16.4021 167.947 -16.4177 165.646C-16.4413 163.348 -16.0118 161.068 -15.1538 158.936C-14.2958 156.805 -13.0262 154.864 -11.4177 153.225C-9.80925 151.586 -7.89363 150.282 -5.78068 149.386C-3.66774 148.49 -1.39905 148.021 0.895285 148.005H0.954986ZM58.0879 466.022C67.6399 466.022 75.4009 473.796 75.4009 483.364C75.4087 485.685 74.959 487.986 74.0775 490.133C73.1959 492.28 71.8999 494.232 70.2638 495.876C68.6276 497.521 66.6835 498.826 64.5428 499.716C62.4022 500.606 60.1072 501.064 57.7894 501.064C55.5158 501.064 53.2645 500.616 51.164 499.744C49.0635 498.873 47.1549 497.595 45.5472 495.985C43.9396 494.375 42.6643 492.463 41.7943 490.359C40.9242 488.255 40.4764 486 40.4764 483.722C40.4685 481.401 40.9183 479.1 41.7998 476.953C42.6814 474.806 43.9774 472.854 45.6135 471.21C47.2497 469.565 49.1938 468.26 51.3344 467.37C53.4751 466.48 55.7701 466.022 58.0879 466.022ZM407.751 451.012C412.39 450.98 416.852 452.796 420.155 456.059C423.457 459.323 425.331 463.767 425.362 468.414C425.394 473.061 423.581 477.53 420.323 480.838C417.065 484.146 412.629 486.023 407.99 486.055C403.35 486.086 398.889 484.271 395.586 481.007C392.283 477.744 390.41 473.3 390.378 468.653C390.346 464.006 392.159 459.537 395.417 456.228C398.675 452.92 403.112 451.044 407.751 451.012ZM295.216 26.3122C299.856 26.2805 304.317 28.0961 307.62 31.3595C310.923 34.623 312.796 39.0671 312.828 43.714C312.859 48.361 311.047 52.8302 307.789 56.1386C304.531 59.4469 300.094 61.3233 295.455 61.355C290.816 61.3867 286.354 59.5712 283.051 56.3077C279.749 53.0442 277.875 48.6002 277.844 43.9532C277.812 39.3063 279.624 34.837 282.882 31.5287C286.14 28.2204 290.577 26.3439 295.216 26.3122ZM129.31 296.608L146.922 314.01L129.608 331.651L111.997 314.309L129.31 296.608ZM389.304 219.765C389.304 219.765 406.617 227.539 406.617 237.107V237.406C406.617 246.974 398.856 254.748 389.304 254.748H389.065C379.513 254.748 371.752 237.406 371.752 237.406L389.304 219.765ZM536.882 343.731C536.195 342.308 536.052 340.682 536.481 339.161C536.91 337.641 537.881 336.33 539.21 335.478C553.777 326.329 569.299 324.654 581.896 330.694C594.433 336.854 602.612 350.189 604.403 367.352C605.716 380.149 611.208 389.537 619.805 393.783C628.402 397.969 639.148 396.474 650.073 389.657C651.487 388.985 653.097 388.855 654.6 389.294C656.102 389.732 657.391 390.708 658.223 392.035C659.055 393.363 659.372 394.95 659.113 396.495C658.854 398.041 658.038 399.438 656.819 400.421C642.252 409.63 626.73 411.364 614.193 405.265C601.656 399.165 593.418 385.83 591.687 368.667C590.313 355.81 584.821 346.422 576.224 342.236C567.627 338.05 556.881 339.485 545.956 346.302C542.971 348.216 539.031 347.259 537.18 344.329L536.882 343.731ZM596.94 529.768C598.156 529.355 599.482 529.407 600.661 529.915C601.841 530.423 602.791 531.351 603.328 532.519C609.238 545.316 609 558.114 602.731 567.682C596.463 577.25 584.821 582.512 570.732 582.153C560.225 581.914 552.046 585.382 547.747 591.901C543.449 598.479 543.509 607.389 547.926 616.897C548.213 617.521 548.373 618.196 548.399 618.882C548.425 619.569 548.316 620.254 548.077 620.898C547.839 621.542 547.476 622.133 547.01 622.637C546.543 623.14 545.983 623.547 545.359 623.834C544.736 624.12 544.063 624.281 543.377 624.307C542.692 624.333 542.008 624.224 541.365 623.985C540.722 623.746 540.132 623.383 539.629 622.916C539.126 622.448 538.72 621.887 538.434 621.262C532.524 608.525 532.763 595.728 539.031 586.16C545.3 576.592 556.941 571.329 571.03 571.688C581.538 571.927 589.716 568.459 594.015 561.941C598.313 555.363 598.254 546.453 593.836 536.944C593.52 536.275 593.35 535.546 593.338 534.806C593.326 534.066 593.472 533.332 593.766 532.652C594.059 531.973 594.495 531.364 595.042 530.867C595.59 530.37 596.237 529.995 596.94 529.768ZM596.94 -68.2316C598.156 -68.6451 599.482 -68.5928 600.661 -68.0848C601.841 -67.5768 602.791 -66.6491 603.328 -65.4808C609.238 -52.6836 609 -39.8864 602.731 -30.3184C596.463 -20.7504 584.821 -15.488 570.732 -15.8468C560.225 -16.086 552.046 -12.6176 547.747 -6.09938C543.449 0.478625 543.509 9.38883 547.926 18.897C548.213 19.5213 548.373 20.196 548.399 20.8825C548.425 21.569 548.316 22.2538 548.077 22.898C547.839 23.5421 547.476 24.1329 547.01 24.6367C546.543 25.1404 545.983 25.5472 545.359 25.8338C544.736 26.1205 544.063 26.2813 543.377 26.3072C542.692 26.3331 542.008 26.2236 541.365 25.9848C540.722 25.746 540.132 25.3827 539.629 24.9156C539.126 24.4485 538.72 23.8867 538.434 23.2624C532.524 10.525 532.763 -2.27218 539.031 -11.8402C545.3 -21.4082 556.941 -26.6706 571.03 -26.3118C581.538 -26.0726 589.716 -29.541 594.015 -36.0592C598.313 -42.6372 598.254 -51.5474 593.836 -61.0556C593.52 -61.7248 593.35 -62.4539 593.338 -63.1941C593.326 -63.9343 593.472 -64.6685 593.766 -65.3477C594.059 -66.027 594.495 -66.6356 595.042 -67.1329C595.59 -67.6302 596.237 -68.0048 596.94 -68.2316ZM56.3566 59.2022C57.2521 57.4082 59.5804 56.87 61.7296 57.767C72.9532 62.6706 80.5948 70.4446 82.8037 79.1754C85.0723 87.966 81.55 96.6968 73.2517 103.215C67.0429 107.999 64.4758 114.039 65.9683 120.019C67.5205 125.999 72.9532 131.381 81.3112 134.969C83.6395 136.045 84.8932 138.437 84.1171 140.351C83.341 142.384 80.8336 143.161 78.565 142.145C67.3414 137.241 59.6998 129.467 57.4312 120.736C55.2223 112.006 58.7446 103.215 66.9832 96.7566C73.2517 91.9128 75.8188 85.873 74.3263 79.893C72.7741 73.913 67.3414 68.5908 58.9237 64.943C56.6551 63.9264 55.4014 61.5344 56.1775 59.561L56.3566 59.1424V59.2022ZM-60.1181 343.79C-60.8053 342.368 -60.9478 340.742 -60.5187 339.221C-60.0896 337.7 -59.1187 336.39 -57.7898 335.538C-43.223 326.389 -27.701 324.714 -15.1043 330.754C-2.56731 336.913 5.61159 350.249 7.40259 367.411C8.71599 380.209 14.2084 389.597 22.8052 393.843C31.402 398.029 42.148 396.534 53.0731 389.717C54.4866 389.045 56.0973 388.915 57.5996 389.354C59.1019 389.792 60.3913 390.767 61.2233 392.095C62.0552 393.422 62.3718 395.009 62.113 396.555C61.8542 398.101 61.038 399.498 59.8192 400.481C45.2524 409.69 29.7304 411.424 17.1934 405.325C4.65639 399.165 -3.58221 385.83 -5.37321 368.667C-6.74631 355.81 -12.2387 346.422 -20.8355 342.236C-29.4323 338.05 -40.1783 339.485 -51.1034 346.302C-54.0884 348.216 -58.0286 347.259 -59.8793 344.329L-60.1778 343.731L-60.1181 343.79ZM-0.0599143 529.768C1.15597 529.355 2.48169 529.407 3.66137 529.915C4.84104 530.423 5.79103 531.351 6.32799 532.519C12.2383 545.316 11.9995 558.114 5.73099 567.682C-0.537512 577.25 -12.179 582.512 -26.2682 582.153C-36.7754 581.914 -44.9543 585.382 -49.2527 591.901C-53.5511 598.479 -53.4914 607.389 -49.0736 616.897C-48.4957 618.158 -48.4415 619.597 -48.9229 620.898C-49.4043 622.199 -50.382 623.255 -51.6407 623.834C-52.8995 624.413 -54.3363 624.467 -55.635 623.985C-56.9337 623.503 -57.988 622.523 -58.5659 621.262C-64.4762 608.525 -64.2374 595.728 -57.9689 586.16C-51.7004 576.592 -40.0589 571.329 -25.9697 571.688C-15.4625 571.927 -7.28361 568.459 -2.98521 561.941C1.31319 555.363 1.25349 546.453 -3.16431 536.944C-3.48017 536.275 -3.64981 535.546 -3.66189 534.806C-3.67398 534.066 -3.52823 533.332 -3.23439 532.652C-2.94054 531.973 -2.50536 531.364 -1.95793 530.867C-1.4105 530.37 -0.763415 529.995 -0.0599143 529.768ZM262.143 500.765C260.71 497.895 261.546 494.307 264.292 492.513C278.679 483.005 294.142 480.972 306.858 486.772C319.574 492.573 328.051 505.729 330.26 522.832C331.872 535.629 337.603 544.958 346.26 548.904C354.976 552.911 365.662 551.177 376.408 544.12C377.818 543.188 379.54 542.854 381.196 543.19C382.852 543.526 384.307 544.506 385.244 545.914C387.154 548.904 386.378 552.851 383.453 554.765C369.125 564.273 353.603 566.366 340.887 560.506C328.23 554.705 319.693 541.549 317.544 524.446C315.872 511.649 310.201 502.38 301.485 498.373C292.769 494.367 282.082 496.101 271.336 503.157C268.411 505.071 264.411 504.353 262.501 501.363L262.143 500.765ZM244.77 273.107C241.964 274.602 238.382 273.705 236.531 271.014C226.919 256.722 224.591 241.233 230.263 228.496C235.875 215.699 248.949 206.968 265.963 204.576C278.739 202.782 287.873 196.981 291.754 188.251C295.634 179.46 293.784 168.756 286.56 158.052C284.59 155.121 285.366 151.175 288.231 149.201C291.216 147.228 295.097 148.005 297.186 150.876C306.738 165.168 309.126 180.656 303.395 193.393C297.783 206.191 284.769 214.921 267.695 217.313C254.979 219.107 245.785 224.908 241.904 233.639C238.024 242.429 239.874 253.134 247.098 263.838C249.068 266.768 248.352 270.715 245.427 272.748C245.188 272.808 245.009 272.987 244.829 273.107H244.77ZM602.97 58.365L607.447 68.5908L547.926 94.544L543.509 84.2584L602.97 58.365ZM521.479 58.0062L517.539 68.4712L353.066 6.69783L356.946 -3.82697L521.479 58.0062ZM247.158 -37.1356L256.829 -31.5742L204.174 59.8002L194.502 54.179L247.158 -37.1356ZM521.479 656.006L517.539 666.531L353.066 604.638L356.946 594.173L521.479 656.006ZM301.962 335.06L313.007 333.266L323.932 400.959L312.888 402.753L301.962 335.06ZM264.829 417.524L261.844 428.288L160.354 400.421L163.339 389.657L264.829 417.524ZM247.158 560.864L256.829 566.426L204.174 657.8L194.502 652.179L247.158 560.864ZM521.479 58.0062L517.539 68.4712L353.066 6.69783L356.946 -3.82697L521.479 58.0062ZM475.092 312.515L479.689 323.04L382.14 365.558L377.543 355.093L475.092 312.515ZM5.96979 58.365L10.4473 68.5908L-49.0139 94.544L-53.4914 84.2584L5.96979 58.365ZM602.97 58.365L607.447 68.5908L547.926 94.544L543.509 84.2584L602.97 58.365ZM185.309 165.527L188.891 176.649L50.8045 221.38L47.2225 210.257L185.309 165.527ZM472.466 443.298L476.824 433.012L536.524 458.606L532.106 468.892L472.466 443.298ZM247.158 -37.0758L256.829 -31.5144L204.174 59.8002L194.502 54.179L247.158 -37.0758ZM403.214 66.9762L412.885 72.5974L369.543 147.766L359.871 142.145L403.214 66.9762ZM126.683 540.293L123.101 531.921L180.294 507.044L183.876 515.357L126.683 540.293ZM540.404 242.549L531.449 249.247L468.645 164.749L477.6 158.052L540.404 242.549ZM521.479 656.006L517.539 666.531L353.066 604.638L356.946 594.173L521.479 656.006ZM247.158 560.924L256.829 566.486L204.174 657.8L194.502 652.179L247.158 560.924ZM5.96979 58.365L10.3876 68.5908L-49.0736 94.544L-53.5511 84.2584L5.96979 58.365Z" fill="#D6DCE1"/>
</g>
<defs>
<clipPath id="clip0_2397_252">
<rect width="597" height="598" fill="white"/>
</clipPath>
</defs>
</svg>
