<svg width="506" height="137" viewBox="0 0 506 137" fill="none" xmlns="http://www.w3.org/2000/svg">
<path d="M72.3154 46.0195C72.9035 45.3613 73.8496 45.3333 74.4678 45.9561C75.0594 46.5524 75.1558 47.5508 74.6924 48.2754L58.3457 73.8125C57.0696 75.8058 54.5703 76.2148 52.8379 74.7139C50.9968 73.1183 50.8243 70.0764 52.4707 68.2334L72.3154 46.0195Z" fill="#25D366"/>
<path fill-rule="evenodd" clip-rule="evenodd" d="M62 0C96.2416 8.78449e-07 124 27.5262 124 61.4814C124 95.4367 96.2417 122.963 62 122.963C55.0847 122.963 48.4339 121.839 42.2227 119.768L20.8027 136.446C18.9609 137.88 16.4305 136.355 16.5254 133.868L17.6494 104.469L17.666 104.461C6.73642 93.3762 0 78.2089 0 61.4814C2.14236e-05 27.5262 27.7584 0 62 0ZM85.9668 33.7236C86.2576 30.284 83.0009 27.8745 80.2881 29.5225L29.1699 60.5781C26.2286 62.3656 26.5789 67.2109 29.7383 68.4473L41.8604 73.1904C42.8918 73.5943 43.582 74.6851 43.582 75.9082V83.8018C43.5823 91.3623 51.9794 94.8523 56.3877 89.124L61.082 83.0225C61.771 82.1276 62.8793 81.795 63.876 82.1836L76.6484 87.1631C79.0115 88.0842 81.5209 86.2816 81.7568 83.4932L85.9668 33.7236Z" fill="#25D366"/>
<path fill-rule="evenodd" clip-rule="evenodd" d="M263.595 46.21C284.028 46.2101 293.095 56.6249 289.576 72.9902L285.381 92.7363C284.569 96.3881 285.652 97.8759 292.688 97.876H293.501L290.117 114.106H286.6C276.45 114.106 272.39 111.537 269.954 106.938H268.466C261.97 113.971 253.58 116 246.814 116C233.959 116 225.568 108.155 225.568 96.3887C225.568 86.2448 231.658 75.8302 251.686 75.8301H270.09L270.901 72.3135C272.255 65.9567 269.007 62.3047 261.835 62.3047C255.34 62.3047 251.55 65.9571 250.468 70.5557H231.793C235.176 56.219 242.349 46.21 263.595 46.21ZM252.092 88.6787C247.356 88.6787 244.379 91.384 244.379 94.6299C244.379 97.3349 246.544 100.04 252.633 100.04C258.181 100.04 265.353 97.8759 266.842 90.8428L267.384 88.6787H252.092Z" fill="#25D366"/>
<path fill-rule="evenodd" clip-rule="evenodd" d="M476.094 46.21C496.527 46.21 505.594 56.6248 502.075 72.9902L497.881 92.7363C497.069 96.3881 498.152 97.876 505.188 97.876H506L502.617 114.106H499.099C488.95 114.106 484.89 111.537 482.454 106.938H480.965C474.469 113.971 466.08 116 459.313 116C446.458 116 438.067 108.155 438.067 96.3887C438.067 86.2448 444.158 75.8301 464.186 75.8301H482.589L483.401 72.3135C484.754 65.9568 481.506 62.3047 474.334 62.3047C467.839 62.3049 464.049 65.9572 462.967 70.5557H444.293C447.676 56.219 454.848 46.21 476.094 46.21ZM464.591 88.6787C459.855 88.6788 456.878 91.3841 456.878 94.6299C456.878 97.3349 459.043 100.04 465.133 100.04C470.681 100.04 477.853 97.8757 479.342 90.8428L479.883 88.6787H464.591Z" fill="#25D366"/>
<path d="M190.695 57.165H192.726L219.384 24.0283H241.577V26.0576L197.597 79.4824L189.748 114.106H169.721L177.704 78.4004L157 26.0576L157.406 24.0283H177.84L190.695 57.165Z" fill="#25D366"/>
<path d="M336.157 59.7354H371.747L379.325 24.0283H399.353L380.137 114.106H360.109L367.958 77.8594H332.368L324.654 114.106H304.627L323.843 24.0283H343.87L336.157 59.7354Z" fill="#25D366"/>
<path d="M419.62 114.106H399.863L419.485 22H439.242L419.62 114.106Z" fill="#25D366"/>
</svg>
