<svg width="476" height="137" viewBox="0 0 476 137" fill="none" xmlns="http://www.w3.org/2000/svg">
<path d="M424.315 46.0195C424.903 45.3613 425.849 45.3333 426.467 45.9561C427.059 46.5524 427.155 47.5508 426.692 48.2754L410.345 73.8125C409.069 75.8058 406.57 76.2148 404.837 74.7139C402.996 73.1183 402.824 70.0764 404.47 68.2334L424.315 46.0195Z" fill="#25D366"/>
<path fill-rule="evenodd" clip-rule="evenodd" d="M414 0C448.241 8.78449e-07 476 27.5262 476 61.4814C476 95.4367 448.241 122.963 414 122.963C407.084 122.963 400.433 121.839 394.222 119.768L372.802 136.446C370.96 137.88 368.43 136.355 368.525 133.868L369.649 104.469L369.666 104.461C358.736 93.3762 352 78.2089 352 61.4814C352 27.5262 379.758 0 414 0ZM437.966 33.7236C438.257 30.284 435 27.8745 432.288 29.5225L381.169 60.5781C378.228 62.3656 378.578 67.2109 381.738 68.4473L393.86 73.1904C394.891 73.5943 395.582 74.6851 395.582 75.9082V83.8018C395.582 91.3623 403.979 94.8523 408.387 89.124L413.082 83.0225C413.771 82.1276 414.879 81.795 415.876 82.1836L428.648 87.1631C431.011 88.0842 433.52 86.2816 433.756 83.4932L437.966 33.7236Z" fill="#25D366"/>
<path d="M291.365 128H262.995L266.054 113.232H294.424L291.365 128Z" fill="#25D366"/>
<path fill-rule="evenodd" clip-rule="evenodd" d="M79.3452 74.3633C76.9811 85.0906 80.4573 85.3691 85.3247 85.3691H152.466C150.937 81.1898 150.658 76.5924 151.771 71.5771C154.97 56.392 165.956 46.7793 180.28 45.9434L186.816 31.7334L206.007 40.6494C224.086 49.0083 236.881 60.4322 232.013 82.7227C229.927 93.3106 224.225 107.66 204.338 107.66C190.849 107.66 180.976 105.57 171.519 101.809C166.513 105.013 155.665 106.267 146.487 106.267H80.8745C74.0603 106.267 68.0808 103.063 65.2993 96.6543C55.5647 104.735 45.2733 107.66 32.062 107.66C15.0957 107.66 -3.26117 101.391 0.49367 84.2549C4.10952 67.3979 18.8506 64.3325 32.7573 55.5557C31.9229 51.2369 29.6974 45.1068 24.9693 33.126L20.7974 22.6777L38.0415 12.5078L42.4917 24.7676C48.0544 39.5349 50.4189 51.3767 48.8892 58.2031C45.9688 71.9953 25.525 72.9705 18.9888 81.0508C18.7107 85.2302 25.1081 86.7627 34.7036 86.7627C51.1137 86.7627 59.5969 82.4437 62.1001 70.7412L74.6167 11.3936L92.9732 10L79.3452 74.3633ZM202.809 60.5713C203.644 64.0542 203.644 68.3733 202.67 72.9707C201.419 78.8219 198.637 84.1161 194.604 88.1562C196.829 88.4349 199.611 88.8529 202.392 88.9922C210.736 89.41 214.63 85.2301 215.881 79.7969C217.55 71.7166 212.405 66.4225 202.809 60.5713ZM179.584 62.9395C174.161 62.9395 169.851 67.2584 168.738 72.2734C167.347 78.264 170.128 82.4442 174.717 85.2305C182.088 82.4442 186.538 78.9606 187.928 72.6914C189.041 67.3976 186.121 62.9395 179.584 62.9395ZM158.864 85.0908C159.142 84.9517 159.142 84.9516 158.864 84.8125V85.0908Z" fill="#25D366"/>
<path d="M264.842 74.7812C263.174 82.8614 264.981 85.3691 273.603 85.3691H274.677C282.326 85.3689 289.418 80.4934 291.504 70.4629C292.617 64.8903 292.616 56.9492 292.477 50.8193L310.696 46.083C311.391 54.8597 310.973 63.9149 308.609 74.7812C305.41 90.2452 294.98 106.267 269.809 106.267H269.114L269.113 106.265C250.468 106.19 242.604 94.5036 246.625 75.6172L260.114 11.3936L278.471 10L264.842 74.7812Z" fill="#25D366"/>
</svg>
